HIERARCHY
ROOT SimulationBone
{
	OFFSET 0.000000 0.000000 0.000000
	CHANNELS 6 Xposition Yposition Zposition Zrotation Yrotation Xrotation 
	JOINT Hips
	{
		OFFSET 0.000000 0.000000 0.000000
		CHANNELS 6 Xposition Yposition Zposition Zrotation Yrotation Xrotation 
		JOINT LeftUpLeg
		{
			OFFSET 0.103459 1.857839 10.548500
			CHANNELS 3 Zrotation Yrotation Xrotation
			JOINT LeftLeg
			{
				OFFSET 43.500004 -0.000053 -0.000011
				CHANNELS 3 Zrotation Yrotation Xrotation
				JOINT LeftFoot
				{
					OFFSET 42.372192 0.000015 -0.000008
					CHANNELS 3 Zrotation Yrotation Xrotation
					JOINT LeftToe
					{
						OFFSET 17.300007 0.000002 0.000013
						CHANNELS 3 Zrotation Yrotation Xrotation
						End Site
						{
							OFFSET 0.000000 0.000000 0.000000
						}
					}
				}
			}
		}
		JOINT RightUpLeg
		{
			OFFSET 0.103460 1.857826 -10.548500
			CHANNELS 3 Zrotation Yrotation Xrotation
			JOINT RightLeg
			{
				OFFSET 43.500046 -0.000019 0.000011
				CHANNELS 3 Zrotation Yrotation Xrotation
				JOINT RightFoot
				{
					OFFSET 42.372261 0.000004 0.000012
					CHANNELS 3 Zrotation Yrotation Xrotation
					JOINT RightToe
					{
						OFFSET 17.299995 -0.000004 0.000006
						CHANNELS 3 Zrotation Yrotation Xrotation
						End Site
						{
							OFFSET 0.000000 0.000000 0.000000
						}
					}
				}
			}
		}
		JOINT Spine
		{
			OFFSET 6.901963 -2.603745 -0.000005
			CHANNELS 3 Zrotation Yrotation Xrotation
			JOINT Spine1
			{
				OFFSET 12.588102 0.000012 0.000012
				CHANNELS 3 Zrotation Yrotation Xrotation
				JOINT Spine2
				{
					OFFSET 12.343202 0.000010 -0.000009
					CHANNELS 3 Zrotation Yrotation Xrotation
					JOINT Neck
					{
						OFFSET 25.832901 -0.000008 0.000006
						CHANNELS 3 Zrotation Yrotation Xrotation
						JOINT Head
						{
							OFFSET 11.766603 0.000007 -0.000001
							CHANNELS 3 Zrotation Yrotation Xrotation
							End Site
							{
								OFFSET 0.000000 0.000000 0.000000
							}
						}
					}
					JOINT LeftShoulder
					{
						OFFSET 19.745903 -1.480391 6.000108
						CHANNELS 3 Zrotation Yrotation Xrotation
						JOINT LeftArm
						{
							OFFSET 11.284125 -0.000031 -0.000021
							CHANNELS 3 Zrotation Yrotation Xrotation
							JOINT LeftForeArm
							{
								OFFSET 33.000046 0.000024 0.000034
								CHANNELS 3 Zrotation Yrotation Xrotation
								JOINT LeftHand
								{
									OFFSET 25.200014 0.000020 0.000007
									CHANNELS 3 Zrotation Yrotation Xrotation
									End Site
									{
										OFFSET 0.000000 0.000000 0.000000
									}
								}
							}
						}
					}
					JOINT RightShoulder
					{
						OFFSET 19.746098 -1.480371 -6.000075
						CHANNELS 3 Zrotation Yrotation Xrotation
						JOINT RightArm
						{
							OFFSET 11.284128 -0.000021 -0.000009
							CHANNELS 3 Zrotation Yrotation Xrotation
							JOINT RightForeArm
							{
								OFFSET 33.000095 0.000034 0.000006
								CHANNELS 3 Zrotation Yrotation Xrotation
								JOINT RightHand
								{
									OFFSET 25.199781 0.000147 0.000427
									CHANNELS 3 Zrotation Yrotation Xrotation
									End Site
									{
										OFFSET 0.000000 0.000000 0.000000
									}
								}
							}
						}
					}
				}
			}
		}
	}
}
MOTION
Frames: 11
Frame Time: 0.016667
193.951462 0.000000 322.765364 180.000000 -73.638280 180.000000 -1.976384 89.718224 -0.417082 87.901243 -0.797764 179.563064 171.815376 -3.344896 159.525120 -26.905256 2.790939 -6.808277 88.904719 3.315545 -7.421994 21.454551 0.003091 -0.000001 160.148798 11.847794 -176.425548 -32.327680 -2.716969 1.708900 80.295717 1.692654 11.750289 21.454562 -0.003123 -0.000019 6.449603 -0.314734 -1.057404 2.891999 -0.603495 -2.122229 2.574103 -0.616173 -2.118551 11.442398 5.218967 -9.650110 -11.706682 6.739770 -11.554152 -165.685265 -81.839100 -16.053495 -35.447772 62.071630 28.875775 -39.670766 -13.160701 1.329003 6.724320 -5.563478 10.880849 -164.623513 75.299738 17.145997 15.061208 -65.746749 -28.912842 -25.687722 10.946219 -0.918629 8.422492 0.080345 -5.662614 
194.176914 0.000000 322.885929 180.000000 -71.929435 180.000000 -1.989643 89.668334 -0.305662 87.897785 -0.697375 -179.866177 172.012709 -3.322570 158.976255 -26.984455 2.767363 -7.167386 89.138419 3.550368 -7.531714 21.454551 0.003087 0.000000 158.833511 11.645998 -175.955893 -34.036043 -2.941947 1.694230 79.462360 1.594844 10.973365 21.454559 -0.003115 -0.000016 6.470421 -0.275220 -1.197479 2.933462 -0.520629 -2.401451 2.615651 -0.534986 -2.398272 11.416079 4.999345 -9.677520 -11.831649 6.758432 -11.621324 -164.826133 -81.898692 -16.923726 -37.452274 61.977510 29.204256 -42.334794 -13.846673 1.448594 5.655282 -6.662428 12.618854 -165.147886 75.186765 16.609617 16.588941 -66.162488 -32.058842 -25.365961 10.809109 -0.906930 8.772873 -0.701785 -4.235099 
194.363396 0.000000 323.027035 180.000000 -70.254280 180.000000 -1.988569 89.554092 -0.229990 87.890545 -0.741898 -179.527455 172.201992 -3.149901 158.075152 -27.160977 2.920158 -7.469060 89.455062 3.731945 -7.737572 21.454553 0.003090 0.000000 157.410397 11.586391 -175.469582 -35.843660 -3.015014 1.881975 78.986417 1.428258 10.656526 21.454558 -0.003110 -0.000016 6.481083 -0.253720 -1.323773 2.954830 -0.474246 -2.653494 2.637096 -0.490120 -2.650589 11.370962 4.641531 -9.690803 -11.985163 6.833356 -11.708450 -163.389693 -81.862712 -18.379283 -38.840951 61.737805 29.488576 -45.100845 -14.484193 1.565439 4.534712 -7.377571 14.097049 -165.008422 75.141605 16.752657 17.618877 -66.400548 -33.962970 -24.893285 10.354151 -0.867824 8.770087 -0.861079 -5.132015 
194.511121 0.000000 323.187040 180.000000 -68.612629 180.000000 -1.983605 89.413414 -0.192904 87.873390 -0.866571 -179.371529 172.405412 -2.879378 156.998665 -27.351195 3.154843 -7.773295 89.789056 3.905307 -8.007232 21.454554 0.003095 -0.000001 155.963170 11.542700 -174.855043 -37.644802 -2.988555 2.353636 78.835602 1.069193 10.513455 21.454557 -0.003107 -0.000017 6.483117 -0.244671 -1.432790 2.959112 -0.453358 -2.871266 2.641444 -0.470544 -2.868479 11.334084 4.272733 -9.720565 -12.186188 6.911348 -11.819787 -161.953251 -81.824400 -19.834960 -39.692565 61.409072 29.617833 -47.903430 -15.003750 1.682613 3.486241 -7.775773 15.314999 -164.520214 75.119883 17.252809 18.291667 -66.484078 -35.102403 -24.367247 9.775659 -0.821150 8.674301 -0.668004 -7.012554 
194.620303 0.000000 323.364303 180.000000 -67.004121 180.000000 -1.985317 89.284218 -0.196203 87.845178 -1.006609 -179.349054 172.647306 -2.563796 155.923452 -27.470745 3.377536 -8.139081 90.074696 4.114666 -8.308328 21.454555 0.003096 -0.000001 154.573833 11.392712 -173.995108 -39.333303 -2.911051 3.194132 78.980099 0.387388 10.256315 21.454557 -0.003105 -0.000017 6.478019 -0.242498 -1.521026 2.949191 -0.446927 -3.047641 2.631576 -0.465178 -3.044887 11.332682 4.020167 -9.797870 -12.453481 6.939064 -11.959284 -161.028428 -81.884091 -20.771232 -40.088666 61.048031 29.476538 -50.674197 -15.335761 1.794540 2.626315 -7.927807 16.273856 -163.994070 75.076889 17.792053 18.780917 -66.419960 -35.986123 -23.884116 9.268367 -0.782125 8.735088 -0.389181 -8.536948 
194.691152 0.000000 323.557183 180.000000 -65.428240 180.000000 -2.000710 89.191320 -0.237779 87.810568 -1.114120 -179.415442 172.944599 -2.245805 154.992609 -27.470502 3.515434 -8.611224 90.273392 4.393867 -8.617232 21.454552 0.003091 -0.000000 153.317473 11.060048 -172.782990 -40.805256 -2.830935 4.411298 79.403087 -0.664755 9.689143 21.454555 -0.003103 -0.000016 6.467792 -0.242356 -1.587894 2.928954 -0.445262 -3.181333 2.611377 -0.464322 -3.178586 11.379510 3.961421 -9.942912 -12.793852 6.885694 -12.130040 -160.929636 -82.105970 -20.868666 -40.107327 60.696053 28.998331 -53.337604 -15.430923 1.890439 2.024310 -7.905233 16.945157 -163.670562 74.989667 18.124193 19.227041 -66.215307 -36.999336 -23.523081 8.982127 -0.758796 9.112286 -0.258847 -8.757144 
194.723883 0.000000 323.764037 180.000000 -63.884342 180.000000 -2.021725 89.107140 -0.303695 87.783914 -1.208666 -179.545015 173.272282 -1.926803 154.215959 -27.444628 3.576659 -9.182041 90.455882 4.739170 -8.944882 21.454551 0.003090 0.000001 152.254041 10.639698 -171.172067 -41.965757 -2.809518 5.692542 80.110782 -1.805644 8.997455 21.454555 -0.003103 -0.000016 6.456550 -0.242372 -1.644484 2.906660 -0.444217 -3.294462 2.589118 -0.463961 -3.291722 11.429956 3.975169 -10.131641 -13.167657 6.811297 -12.334000 -161.276445 -82.392993 -20.514192 -39.818489 60.327992 28.311864 -55.797945 -15.319447 1.967565 1.580719 -7.776376 17.170641 -163.498294 74.913518 18.301373 19.601699 -65.909178 -37.997334 -23.299930 8.886049 -0.748807 9.521892 -0.425035 -8.299907 
194.718708 0.000000 323.983224 180.000000 -62.371665 180.000000 -2.039053 89.002644 -0.381354 87.773450 -1.316045 -179.716439 173.600428 -1.602877 153.567457 -27.487519 3.585319 -9.828066 90.692941 5.136062 -9.303867 21.454552 0.003101 0.000002 151.432697 10.227044 -169.169074 -42.735614 -2.901460 6.739562 81.059411 -2.749004 8.430933 21.454558 -0.003105 -0.000017 6.447927 -0.240837 -1.701192 2.889594 -0.439996 -3.407770 2.572093 -0.460421 -3.405058 11.427193 3.914112 -10.338519 -13.523156 6.794037 -12.579375 -161.534591 -82.629710 -20.250278 -39.298701 59.909966 27.592835 -57.967089 -15.067591 2.029188 1.191154 -7.597692 16.823151 -163.308835 74.899215 18.495633 19.843329 -65.548423 -38.755975 -23.214887 8.909632 -0.748981 9.651182 -0.898528 -7.990902 
194.675839 0.000000 324.213104 180.000000 -60.889356 180.000000 -2.058455 88.895393 -0.470790 87.760234 -1.417243 -179.907132 173.924128 -1.287193 153.011154 -27.550726 3.555553 -10.513393 90.946379 5.560624 -9.681689 21.454555 0.003111 0.000003 150.863701 9.760819 -166.916231 -43.078535 -3.058114 7.625392 82.033808 -3.509590 8.100117 21.454562 -0.003108 -0.000018 6.441523 -0.233738 -1.753956 2.876779 -0.424694 -3.513067 2.559315 -0.445752 -3.510447 11.320782 3.726919 -10.575684 -13.805106 6.892971 -12.897404 -161.414388 -82.790742 -20.370092 -38.654942 59.438039 27.014005 -59.803797 -14.808301 2.078095 0.909829 -7.385894 16.025652 -162.763216 74.903709 19.054656 19.890710 -65.170487 -39.229056 -23.267454 9.005006 -0.756134 9.553135 -1.264719 -7.872794 
194.595489 0.000000 324.452033 180.000000 -59.436484 180.000000 -2.085468 88.806930 -0.573867 87.726558 -1.492851 179.901999 174.246942 -0.987208 152.492169 -27.566881 3.511739 -11.194289 91.163406 5.982187 -10.066062 21.454555 0.003105 0.000003 150.538284 9.161696 -164.591019 -42.983911 -3.200720 8.463494 82.812009 -4.173517 7.967211 21.454560 -0.003109 -0.000018 6.434886 -0.219269 -1.796947 2.863187 -0.394925 -3.598673 2.545745 -0.416503 -3.596229 11.102691 3.423656 -10.856991 -13.993828 7.128285 -13.307315 -160.782342 -82.878219 -21.008395 -37.985004 58.918455 26.689788 -61.270056 -14.646455 2.121042 0.808287 -7.147220 14.960753 -161.653320 74.870302 20.192265 19.735691 -64.799832 -39.442186 -23.463683 9.140938 -0.768011 9.383511 -1.168391 -7.799580 
194.477871 0.000000 324.698371 180.000000 -58.012054 180.000000 -2.108374 88.728127 -0.690828 87.682261 -1.570210 179.714565 174.580714 -0.671410 151.890347 -27.535821 3.522893 -11.808156 91.340611 6.355532 -10.467381 21.454553 0.003093 0.000001 150.428741 8.453197 -162.381792 -42.509464 -3.253767 9.168483 83.312372 -4.791312 7.529146 21.454558 -0.003109 -0.000017 6.421414 -0.206742 -1.831719 2.835941 -0.369474 -3.667886 2.518520 -0.391471 -3.665589 10.926202 3.166107 -11.169343 -14.212034 7.382176 -13.757109 -159.860028 -82.917217 -21.940714 -37.308582 58.377878 26.511583 -62.286953 -14.508970 2.151218 0.867330 -6.902736 13.797950 -160.450486 74.797036 21.425702 19.570578 -64.420170 -39.518568 -23.836522 9.330231 -0.785466 9.340628 -0.901031 -7.643813 
